<svg xmlns="http://www.w3.org/2000/svg" version="1.1" xmlns:xlink="http://www.w3.org/1999/xlink" xmlns:svgjs="http://svgjs.dev/svgjs" width="2000" height="934" viewBox="0 0 2000 934"><g transform="matrix(1,0,0,1,-1.2121212121212466,-2.0883741229174007)"><svg viewBox="0 0 396 185" data-background-color="#21232b" preserveAspectRatio="xMidYMid meet" height="934" width="2000" xmlns="http://www.w3.org/2000/svg" xmlns:xlink="http://www.w3.org/1999/xlink"><g id="tight-bounds" transform="matrix(1,0,0,1,0.2400000000000091,0.4136501207063361)"><svg viewBox="0 0 395.52 184.17269975858733" height="184.17269975858733" width="395.52"><g><svg viewBox="0 0 395.52 184.17269975858733" height="184.17269975858733" width="395.52"><g transform="matrix(1,0,0,1,0,132.04890642961414)"><svg viewBox="0 0 395.52 52.123793328973186" height="52.123793328973186" width="395.52"><g id="textblocktransform"><svg viewBox="0 0 395.52 52.123793328973186" height="52.123793328973186" width="395.52" id="textblock"><g><svg viewBox="0 0 395.52 52.123793328973186" height="52.123793328973186" width="395.52"><g transform="matrix(1,0,0,1,0,0)"><svg width="395.52" viewBox="1 -39.6 305.78 40.300000000000004" height="52.123793328973186" data-palette-color="#f4f3f0"><path d="M29.8-30.7L29.8-38.9 46.2-38.9 46.2-30.7 43.7-30.7 43.7 0 29.65 0 15-22.55 15-8.2 17.4-8.2 17.4 0 1 0 1-8.2 3.5-8.2 3.5-30.7 1-30.7 1-38.9 19.05-38.9 32.2-18.85 32.2-30.7 29.8-30.7ZM66.9 0.7Q57.75 0.7 52.77-4.1 47.8-8.9 47.8-19.45L47.8-19.45Q47.8-30 52.77-34.8 57.75-39.6 66.9-39.6L66.9-39.6Q76.05-39.6 81.02-34.8 86-30 86-19.45L86-19.45Q86-8.9 81.02-4.1 76.05 0.7 66.9 0.7L66.9 0.7ZM66.9-8.2Q68.6-8.2 69.45-9.1 70.3-10 70.3-11.9L70.3-11.9 70.3-27Q70.3-28.9 69.45-29.8 68.6-30.7 66.9-30.7L66.9-30.7Q65.2-30.7 64.35-29.8 63.5-28.9 63.5-27L63.5-27 63.5-11.9Q63.5-9.95 64.35-9.08 65.2-8.2 66.9-8.2L66.9-8.2ZM125-38.9L125-26.8 116.4-26.8 116.4-30.7 113.2-30.7 113.2-8.2 116.7-8.2 116.7 0 95.7 0 95.7-8.2 99.2-8.2 99.2-30.7 96-30.7 96-26.8 87.4-26.8 87.4-38.9 125-38.9ZM160.44 0L126.69 0 126.69-8.2 129.19-8.2 129.19-30.7 126.69-30.7 126.69-38.9 160.44-38.9 160.44-23.8 149.24-23.8 149.24-30.7 143.19-30.7 143.19-22.8 147.59-22.8 147.59-17.1 143.19-17.1 143.19-8.2 149.24-8.2 149.24-16.1 160.44-16.1 160.44 0ZM191.14-30.7L191.14-38.9 207.54-38.9 207.54-30.7 205.04-30.7 205.04 0 190.99 0 176.34-22.55 176.34-8.2 178.74-8.2 178.74 0 162.34 0 162.34-8.2 164.84-8.2 164.84-30.7 162.34-30.7 162.34-38.9 180.39-38.9 193.54-18.85 193.54-30.7 191.14-30.7ZM228.24 0.7Q219.09 0.7 214.11-4.1 209.14-8.9 209.14-19.45L209.14-19.45Q209.14-30 214.11-34.8 219.09-39.6 228.24-39.6L228.24-39.6Q237.39-39.6 242.36-34.8 247.34-30 247.34-19.45L247.34-19.45Q247.34-8.9 242.36-4.1 237.39 0.7 228.24 0.7L228.24 0.7ZM228.24-8.2Q229.94-8.2 230.79-9.1 231.64-10 231.64-11.9L231.64-11.9 231.64-27Q231.64-28.9 230.79-29.8 229.94-30.7 228.24-30.7L228.24-30.7Q226.54-30.7 225.69-29.8 224.84-28.9 224.84-27L224.84-27 224.84-11.9Q224.84-9.95 225.69-9.08 226.54-8.2 228.24-8.2L228.24-8.2ZM290.78-30.7L290.78-38.9 306.78-38.9 306.78-30.7 304.78-30.7 297.33 0 282.38 0 277.83-21.6 277.33-21.6 272.53 0 257.58 0 249.63-30.7 247.63-30.7 247.63-38.9 266.13-38.9 266.13-30.7 264.24-30.7 266.19-17.95 266.69-17.95 271.44-38.9 285.83-38.9 290.24-17.95 290.74-17.95 292.69-30.7 290.78-30.7Z" opacity="1" transform="matrix(1,0,0,1,0,0)" fill="#f4f3f0" class="wordmark-text-0" data-fill-palette-color="primary" id="text-0"></path></svg></g></svg></g></svg></g></svg></g><g transform="matrix(1,0,0,1,137.88813510215826,0)"><svg viewBox="0 0 119.74372979568345 119.74372979568345" height="119.74372979568345" width="119.74372979568345"><g><svg></svg></g><g id="icon-0"><svg viewBox="0 0 119.74372979568345 119.74372979568345" height="119.74372979568345" width="119.74372979568345"><g><rect width="108.87809505496404" height="108.87809505496404" x="5.432817370359707" y="5.432817370359707" fill="#2f84ff" data-fill-palette-color="accent"></rect><rect width="108.87809505496404" height="108.87809505496404" x="-3.552713678800501e-15" y="10.865634740719418" fill="#2f84ff" opacity="0.5" data-fill-palette-color="accent"></rect></g><g transform="matrix(1,0,0,1,22.68993607987791,15.52233534388489)"><svg viewBox="0 0 74.36385763592763 88.69905910791367" height="88.69905910791367" width="74.36385763592763"><g><svg xmlns="http://www.w3.org/2000/svg" xmlns:xlink="http://www.w3.org/1999/xlink" version="1.1" x="0" y="0" viewBox="90 58 332 396" enable-background="new 0 0 512 512" xml:space="preserve" height="88.69905910791367" width="74.36385763592763" class="icon-dxe-0" data-fill-palette-color="quaternary" id="dxe-0"><g fill="#21232b" data-fill-palette-color="quaternary"><g fill="#21232b" data-fill-palette-color="quaternary"><rect x="250" y="160" width="12" height="192" fill="#21232b" data-fill-palette-color="quaternary"></rect><rect x="298" y="192" width="12" height="128" fill="#21232b" data-fill-palette-color="quaternary"></rect><rect x="202" y="192" width="12" height="128" fill="#21232b" data-fill-palette-color="quaternary"></rect><rect x="154" y="224" width="12" height="64" fill="#21232b" data-fill-palette-color="quaternary"></rect><rect x="346" y="224" width="12" height="64" fill="#21232b" data-fill-palette-color="quaternary"></rect><path d="M354.485 58H90V454H422V125.515zM358 78.485L401.515 122H358zM102 442V70H346V134H410V442z" fill="#21232b" data-fill-palette-color="quaternary"></path></g></g></svg></g></svg></g></svg></g></svg></g><g></g></svg></g><defs></defs></svg><rect width="395.52" height="184.17269975858733" fill="none" stroke="none" visibility="hidden"></rect></g></svg></g></svg>